<mxfile host="app.diagrams.net" agent="Mozilla/5.0 (Windows NT 10.0; Win64; x64) AppleWebKit/537.36 (KHTML, like Gecko) Chrome/131.0.0.0 Safari/537.36" version="24.8.8">
  <diagram name="Página-1" id="oCOCOzR9uS4aLc3ZiwAo">
    <mxGraphModel dx="2427" dy="775" grid="1" gridSize="10" guides="1" tooltips="1" connect="1" arrows="1" fold="1" page="1" pageScale="1" pageWidth="827" pageHeight="1169" math="0" shadow="0">
      <root>
        <mxCell id="0" />
        <mxCell id="1" parent="0" />
        <mxCell id="u7sMN4hagnZGgrvHM0rs-49" style="edgeStyle=orthogonalEdgeStyle;rounded=0;orthogonalLoop=1;jettySize=auto;html=1;exitX=0.5;exitY=1;exitDx=0;exitDy=0;entryX=0.5;entryY=0;entryDx=0;entryDy=0;endArrow=open;endFill=0;" edge="1" parent="1" source="u7sMN4hagnZGgrvHM0rs-2" target="u7sMN4hagnZGgrvHM0rs-41">
          <mxGeometry relative="1" as="geometry" />
        </mxCell>
        <mxCell id="u7sMN4hagnZGgrvHM0rs-2" value="" style="ellipse;html=1;shape=startState;fillColor=#000000;strokeColor=#ff0000;" vertex="1" parent="1">
          <mxGeometry x="190" y="20" width="30" height="30" as="geometry" />
        </mxCell>
        <mxCell id="u7sMN4hagnZGgrvHM0rs-10" style="edgeStyle=orthogonalEdgeStyle;rounded=0;orthogonalLoop=1;jettySize=auto;html=1;exitX=0;exitY=1;exitDx=0;exitDy=0;endArrow=open;endFill=0;" edge="1" parent="1" source="u7sMN4hagnZGgrvHM0rs-5">
          <mxGeometry relative="1" as="geometry">
            <mxPoint x="100" y="280" as="targetPoint" />
          </mxGeometry>
        </mxCell>
        <mxCell id="u7sMN4hagnZGgrvHM0rs-54" style="edgeStyle=orthogonalEdgeStyle;rounded=0;orthogonalLoop=1;jettySize=auto;html=1;exitX=1;exitY=1;exitDx=0;exitDy=0;entryX=0.5;entryY=0;entryDx=0;entryDy=0;endArrow=open;endFill=0;" edge="1" parent="1" source="u7sMN4hagnZGgrvHM0rs-5" target="u7sMN4hagnZGgrvHM0rs-52">
          <mxGeometry relative="1" as="geometry">
            <Array as="points">
              <mxPoint x="217" y="240" />
              <mxPoint x="305" y="240" />
            </Array>
          </mxGeometry>
        </mxCell>
        <mxCell id="u7sMN4hagnZGgrvHM0rs-5" value="" style="rhombus;whiteSpace=wrap;html=1;" vertex="1" parent="1">
          <mxGeometry x="180" y="200" width="50" height="50" as="geometry" />
        </mxCell>
        <mxCell id="u7sMN4hagnZGgrvHM0rs-16" style="edgeStyle=orthogonalEdgeStyle;rounded=0;orthogonalLoop=1;jettySize=auto;html=1;exitX=0.5;exitY=1;exitDx=0;exitDy=0;entryX=0.5;entryY=1;entryDx=0;entryDy=0;endArrow=open;endFill=0;" edge="1" parent="1">
          <mxGeometry relative="1" as="geometry">
            <mxPoint x="310" y="320" as="sourcePoint" />
            <mxPoint x="100" y="320" as="targetPoint" />
            <Array as="points">
              <mxPoint x="310" y="360" />
              <mxPoint x="100" y="360" />
            </Array>
          </mxGeometry>
        </mxCell>
        <mxCell id="u7sMN4hagnZGgrvHM0rs-12" value="[categoria não está na página inical]" style="text;html=1;align=center;verticalAlign=middle;whiteSpace=wrap;rounded=0;" vertex="1" parent="1">
          <mxGeometry x="45" y="200" width="110" height="30" as="geometry" />
        </mxCell>
        <mxCell id="u7sMN4hagnZGgrvHM0rs-15" value="[categoria está na página inical]" style="text;html=1;align=center;verticalAlign=middle;whiteSpace=wrap;rounded=0;" vertex="1" parent="1">
          <mxGeometry x="230" y="200" width="110" height="30" as="geometry" />
        </mxCell>
        <mxCell id="u7sMN4hagnZGgrvHM0rs-17" value="escolhe categoria" style="text;html=1;align=center;verticalAlign=middle;whiteSpace=wrap;rounded=0;" vertex="1" parent="1">
          <mxGeometry x="150" y="330" width="110" height="30" as="geometry" />
        </mxCell>
        <mxCell id="u7sMN4hagnZGgrvHM0rs-26" style="edgeStyle=orthogonalEdgeStyle;rounded=0;orthogonalLoop=1;jettySize=auto;html=1;exitX=0;exitY=0.5;exitDx=0;exitDy=0;endArrow=open;endFill=0;" edge="1" parent="1" source="u7sMN4hagnZGgrvHM0rs-19">
          <mxGeometry relative="1" as="geometry">
            <mxPoint x="25.043478260869506" y="545.0000000000001" as="targetPoint" />
          </mxGeometry>
        </mxCell>
        <mxCell id="u7sMN4hagnZGgrvHM0rs-19" value="&lt;span style=&quot;color: rgba(0, 0, 0, 0); font-family: monospace; font-size: 0px; text-align: start; text-wrap-mode: nowrap;&quot;&gt;%3CmxGraphModel%3E%3Croot%3E%3CmxCell%20id%3D%220%22%2F%3E%3CmxCell%20id%3D%221%22%20parent%3D%220%22%2F%3E%3CmxCell%20id%3D%222%22%20value%3D%22%22%20style%3D%22rhombus%3BwhiteSpace%3Dwrap%3Bhtml%3D1%3B%22%20vertex%3D%221%22%20parent%3D%221%22%3E%3CmxGeometry%20x%3D%22105%22%20y%3D%22480%22%20width%3D%2250%22%20height%3D%2250%22%20as%3D%22geometry%22%2F%3E%3C%2FmxCell%3E%3C%2Froot%3E%3C%2FmxGraphModel%3E&lt;/span&gt;" style="rhombus;whiteSpace=wrap;html=1;" vertex="1" parent="1">
          <mxGeometry x="105" y="480" width="50" height="50" as="geometry" />
        </mxCell>
        <mxCell id="u7sMN4hagnZGgrvHM0rs-22" value="busca&amp;nbsp;&lt;div&gt;restaurante&lt;/div&gt;" style="text;html=1;align=center;verticalAlign=middle;whiteSpace=wrap;rounded=0;" vertex="1" parent="1">
          <mxGeometry x="-20" y="380" width="110" height="30" as="geometry" />
        </mxCell>
        <mxCell id="u7sMN4hagnZGgrvHM0rs-33" style="edgeStyle=orthogonalEdgeStyle;rounded=0;orthogonalLoop=1;jettySize=auto;html=1;exitX=0.5;exitY=1;exitDx=0;exitDy=0;entryX=0.5;entryY=0;entryDx=0;entryDy=0;endArrow=open;endFill=0;" edge="1" parent="1" target="u7sMN4hagnZGgrvHM0rs-32">
          <mxGeometry relative="1" as="geometry">
            <mxPoint x="255.00000000000023" y="590.0000000000001" as="sourcePoint" />
          </mxGeometry>
        </mxCell>
        <mxCell id="u7sMN4hagnZGgrvHM0rs-27" style="edgeStyle=orthogonalEdgeStyle;rounded=0;orthogonalLoop=1;jettySize=auto;html=1;exitX=1;exitY=0.5;exitDx=0;exitDy=0;entryX=0.421;entryY=0.05;entryDx=0;entryDy=0;entryPerimeter=0;endArrow=openThin;endFill=0;" edge="1" parent="1" source="u7sMN4hagnZGgrvHM0rs-19">
          <mxGeometry relative="1" as="geometry">
            <mxPoint x="243.15000000000032" y="552" as="targetPoint" />
          </mxGeometry>
        </mxCell>
        <mxCell id="u7sMN4hagnZGgrvHM0rs-28" value="[restaurante não cadastrado]" style="text;html=1;align=center;verticalAlign=middle;whiteSpace=wrap;rounded=0;" vertex="1" parent="1">
          <mxGeometry x="-40" y="470" width="110" height="30" as="geometry" />
        </mxCell>
        <mxCell id="u7sMN4hagnZGgrvHM0rs-29" value="[restaurante já cadastrado]" style="text;html=1;align=center;verticalAlign=middle;whiteSpace=wrap;rounded=0;" vertex="1" parent="1">
          <mxGeometry x="165" y="470" width="110" height="30" as="geometry" />
        </mxCell>
        <mxCell id="u7sMN4hagnZGgrvHM0rs-59" style="edgeStyle=orthogonalEdgeStyle;rounded=0;orthogonalLoop=1;jettySize=auto;html=1;exitX=0;exitY=1;exitDx=0;exitDy=0;endArrow=open;endFill=0;" edge="1" parent="1" source="u7sMN4hagnZGgrvHM0rs-32">
          <mxGeometry relative="1" as="geometry">
            <mxPoint x="120" y="730" as="targetPoint" />
          </mxGeometry>
        </mxCell>
        <mxCell id="u7sMN4hagnZGgrvHM0rs-67" style="edgeStyle=orthogonalEdgeStyle;rounded=0;orthogonalLoop=1;jettySize=auto;html=1;exitX=1;exitY=1;exitDx=0;exitDy=0;entryX=0.5;entryY=0;entryDx=0;entryDy=0;endArrow=open;endFill=0;" edge="1" parent="1" source="u7sMN4hagnZGgrvHM0rs-32" target="u7sMN4hagnZGgrvHM0rs-65">
          <mxGeometry relative="1" as="geometry" />
        </mxCell>
        <mxCell id="u7sMN4hagnZGgrvHM0rs-32" value="" style="rhombus;whiteSpace=wrap;html=1;" vertex="1" parent="1">
          <mxGeometry x="230" y="670" width="50" height="50" as="geometry" />
        </mxCell>
        <mxCell id="u7sMN4hagnZGgrvHM0rs-48" style="edgeStyle=orthogonalEdgeStyle;rounded=0;orthogonalLoop=1;jettySize=auto;html=1;exitX=0.5;exitY=1;exitDx=0;exitDy=0;entryX=0.5;entryY=0;entryDx=0;entryDy=0;endArrow=open;endFill=0;" edge="1" parent="1" source="u7sMN4hagnZGgrvHM0rs-41" target="u7sMN4hagnZGgrvHM0rs-5">
          <mxGeometry relative="1" as="geometry" />
        </mxCell>
        <mxCell id="u7sMN4hagnZGgrvHM0rs-41" value="Acessando página inicial" style="rounded=1;whiteSpace=wrap;html=1;arcSize=40;fontColor=#000000;fillColor=#ffffc0;strokeColor=#ff0000;" vertex="1" parent="1">
          <mxGeometry x="145" y="100" width="120" height="40" as="geometry" />
        </mxCell>
        <mxCell id="u7sMN4hagnZGgrvHM0rs-51" style="edgeStyle=orthogonalEdgeStyle;rounded=0;orthogonalLoop=1;jettySize=auto;html=1;exitX=0.25;exitY=1;exitDx=0;exitDy=0;entryX=0.5;entryY=0;entryDx=0;entryDy=0;endArrow=open;endFill=0;" edge="1" parent="1" source="u7sMN4hagnZGgrvHM0rs-50" target="u7sMN4hagnZGgrvHM0rs-19">
          <mxGeometry relative="1" as="geometry" />
        </mxCell>
        <mxCell id="u7sMN4hagnZGgrvHM0rs-50" value="Acessando página de categorias" style="rounded=1;whiteSpace=wrap;html=1;arcSize=40;fontColor=#000000;fillColor=#ffffc0;strokeColor=#ff0000;" vertex="1" parent="1">
          <mxGeometry x="35" y="280" width="130" height="40" as="geometry" />
        </mxCell>
        <mxCell id="u7sMN4hagnZGgrvHM0rs-52" value="Acessando resultados da categoria escolhida" style="rounded=1;whiteSpace=wrap;html=1;arcSize=40;fontColor=#000000;fillColor=#ffffc0;strokeColor=#ff0000;" vertex="1" parent="1">
          <mxGeometry x="230" y="280" width="150" height="40" as="geometry" />
        </mxCell>
        <mxCell id="u7sMN4hagnZGgrvHM0rs-55" value="Cadastrando&amp;nbsp;&lt;div&gt;restaurante&lt;/div&gt;" style="rounded=1;whiteSpace=wrap;html=1;arcSize=40;fontColor=#000000;fillColor=#ffffc0;strokeColor=#ff0000;" vertex="1" parent="1">
          <mxGeometry x="-40" y="545" width="130" height="40" as="geometry" />
        </mxCell>
        <mxCell id="u7sMN4hagnZGgrvHM0rs-56" value="Visualizando avaliações e comentários" style="rounded=1;whiteSpace=wrap;html=1;arcSize=40;fontColor=#000000;fillColor=#ffffc0;strokeColor=#ff0000;" vertex="1" parent="1">
          <mxGeometry x="170" y="550" width="150" height="40" as="geometry" />
        </mxCell>
        <mxCell id="u7sMN4hagnZGgrvHM0rs-71" style="edgeStyle=orthogonalEdgeStyle;rounded=0;orthogonalLoop=1;jettySize=auto;html=1;exitX=0.5;exitY=1;exitDx=0;exitDy=0;entryX=0.5;entryY=0;entryDx=0;entryDy=0;endArrow=open;endFill=0;" edge="1" parent="1" source="u7sMN4hagnZGgrvHM0rs-60" target="u7sMN4hagnZGgrvHM0rs-68">
          <mxGeometry relative="1" as="geometry" />
        </mxCell>
        <mxCell id="u7sMN4hagnZGgrvHM0rs-60" value="Realiza autenticação" style="rounded=1;whiteSpace=wrap;html=1;arcSize=40;fontColor=#000000;fillColor=#ffffc0;strokeColor=#ff0000;" vertex="1" parent="1">
          <mxGeometry x="45" y="730" width="150" height="40" as="geometry" />
        </mxCell>
        <mxCell id="u7sMN4hagnZGgrvHM0rs-61" value="[deseja avaliar restaurante]" style="text;html=1;align=center;verticalAlign=middle;whiteSpace=wrap;rounded=0;" vertex="1" parent="1">
          <mxGeometry x="105" y="670" width="110" height="30" as="geometry" />
        </mxCell>
        <mxCell id="u7sMN4hagnZGgrvHM0rs-63" value="[não deseja avaliar restaurante]" style="text;html=1;align=center;verticalAlign=middle;whiteSpace=wrap;rounded=0;" vertex="1" parent="1">
          <mxGeometry x="304" y="670" width="110" height="30" as="geometry" />
        </mxCell>
        <mxCell id="u7sMN4hagnZGgrvHM0rs-65" value="" style="ellipse;html=1;shape=endState;fillColor=#000000;strokeColor=#ff0000;" vertex="1" parent="1">
          <mxGeometry x="370" y="740" width="30" height="30" as="geometry" />
        </mxCell>
        <mxCell id="u7sMN4hagnZGgrvHM0rs-87" style="edgeStyle=orthogonalEdgeStyle;rounded=0;orthogonalLoop=1;jettySize=auto;html=1;exitX=1;exitY=0.5;exitDx=0;exitDy=0;entryX=0.5;entryY=1;entryDx=0;entryDy=0;endArrow=open;endFill=0;" edge="1" parent="1" source="u7sMN4hagnZGgrvHM0rs-68" target="u7sMN4hagnZGgrvHM0rs-65">
          <mxGeometry relative="1" as="geometry" />
        </mxCell>
        <mxCell id="u7sMN4hagnZGgrvHM0rs-68" value="Autenticado" style="swimlane;fontStyle=1;align=center;verticalAlign=middle;childLayout=stackLayout;horizontal=1;startSize=30;horizontalStack=0;resizeParent=0;resizeLast=1;container=0;fontColor=#000000;collapsible=0;rounded=1;arcSize=30;strokeColor=#ff0000;fillColor=#ffffc0;swimlaneFillColor=#ffffc0;dropTarget=0;" vertex="1" parent="1">
          <mxGeometry x="-52.5" y="840" width="345" height="250" as="geometry" />
        </mxCell>
        <mxCell id="u7sMN4hagnZGgrvHM0rs-72" value="" style="ellipse;html=1;shape=startState;fillColor=#000000;strokeColor=#ff0000;" vertex="1" parent="1">
          <mxGeometry x="-30" y="890" width="30" height="30" as="geometry" />
        </mxCell>
        <mxCell id="u7sMN4hagnZGgrvHM0rs-78" style="edgeStyle=orthogonalEdgeStyle;rounded=0;orthogonalLoop=1;jettySize=auto;html=1;exitX=0.5;exitY=1;exitDx=0;exitDy=0;entryX=0;entryY=0.5;entryDx=0;entryDy=0;endArrow=open;endFill=0;" edge="1" parent="1" source="u7sMN4hagnZGgrvHM0rs-74" target="u7sMN4hagnZGgrvHM0rs-77">
          <mxGeometry relative="1" as="geometry" />
        </mxCell>
        <mxCell id="u7sMN4hagnZGgrvHM0rs-74" value="Avaliando&amp;nbsp;&lt;div&gt;restaurante&lt;/div&gt;" style="rounded=1;whiteSpace=wrap;html=1;arcSize=40;fontColor=#000000;fillColor=#ffffc0;strokeColor=#ff0000;" vertex="1" parent="1">
          <mxGeometry x="65" y="890" width="120" height="40" as="geometry" />
        </mxCell>
        <mxCell id="u7sMN4hagnZGgrvHM0rs-76" style="edgeStyle=orthogonalEdgeStyle;rounded=0;orthogonalLoop=1;jettySize=auto;html=1;exitX=1;exitY=0.5;exitDx=0;exitDy=0;entryX=-0.019;entryY=0.387;entryDx=0;entryDy=0;entryPerimeter=0;endArrow=open;endFill=0;" edge="1" parent="1" source="u7sMN4hagnZGgrvHM0rs-72" target="u7sMN4hagnZGgrvHM0rs-74">
          <mxGeometry relative="1" as="geometry" />
        </mxCell>
        <mxCell id="u7sMN4hagnZGgrvHM0rs-85" style="edgeStyle=orthogonalEdgeStyle;rounded=0;orthogonalLoop=1;jettySize=auto;html=1;exitX=1;exitY=0;exitDx=0;exitDy=0;endArrow=open;endFill=0;" edge="1" parent="1" source="u7sMN4hagnZGgrvHM0rs-77" target="u7sMN4hagnZGgrvHM0rs-82">
          <mxGeometry relative="1" as="geometry" />
        </mxCell>
        <mxCell id="u7sMN4hagnZGgrvHM0rs-77" value="" style="rhombus;whiteSpace=wrap;html=1;direction=south;" vertex="1" parent="1">
          <mxGeometry x="100" y="960" width="50" height="50" as="geometry" />
        </mxCell>
        <mxCell id="u7sMN4hagnZGgrvHM0rs-86" style="edgeStyle=orthogonalEdgeStyle;rounded=0;orthogonalLoop=1;jettySize=auto;html=1;exitX=1;exitY=0.5;exitDx=0;exitDy=0;entryX=0;entryY=0.5;entryDx=0;entryDy=0;endArrow=open;endFill=0;" edge="1" parent="1" source="u7sMN4hagnZGgrvHM0rs-79" target="u7sMN4hagnZGgrvHM0rs-82">
          <mxGeometry relative="1" as="geometry" />
        </mxCell>
        <mxCell id="u7sMN4hagnZGgrvHM0rs-79" value="Adiciona&lt;div&gt;&amp;nbsp;comentário&lt;/div&gt;" style="rounded=1;whiteSpace=wrap;html=1;arcSize=40;fontColor=#000000;fillColor=#ffffc0;strokeColor=#ff0000;" vertex="1" parent="1">
          <mxGeometry x="-20" y="1020" width="120" height="40" as="geometry" />
        </mxCell>
        <mxCell id="u7sMN4hagnZGgrvHM0rs-80" style="edgeStyle=orthogonalEdgeStyle;rounded=0;orthogonalLoop=1;jettySize=auto;html=1;exitX=1;exitY=1;exitDx=0;exitDy=0;entryX=0.403;entryY=0.044;entryDx=0;entryDy=0;entryPerimeter=0;endArrow=open;endFill=0;" edge="1" parent="1" source="u7sMN4hagnZGgrvHM0rs-77" target="u7sMN4hagnZGgrvHM0rs-79">
          <mxGeometry relative="1" as="geometry">
            <Array as="points">
              <mxPoint x="112" y="1000" />
              <mxPoint x="28" y="1000" />
            </Array>
          </mxGeometry>
        </mxCell>
        <mxCell id="u7sMN4hagnZGgrvHM0rs-81" value="deseja adicionar um comentário" style="text;html=1;align=center;verticalAlign=middle;whiteSpace=wrap;rounded=0;" vertex="1" parent="1">
          <mxGeometry y="970" width="95" height="30" as="geometry" />
        </mxCell>
        <mxCell id="u7sMN4hagnZGgrvHM0rs-82" value="" style="ellipse;html=1;shape=endState;fillColor=#000000;strokeColor=#ff0000;" vertex="1" parent="1">
          <mxGeometry x="205" y="1025" width="30" height="30" as="geometry" />
        </mxCell>
        <mxCell id="u7sMN4hagnZGgrvHM0rs-88" value="[sucesso]" style="text;html=1;align=center;verticalAlign=middle;whiteSpace=wrap;rounded=0;" vertex="1" parent="1">
          <mxGeometry x="110" y="1040" width="85" height="20" as="geometry" />
        </mxCell>
        <mxCell id="u7sMN4hagnZGgrvHM0rs-89" value="[sucesso]" style="text;html=1;align=center;verticalAlign=middle;whiteSpace=wrap;rounded=0;" vertex="1" parent="1">
          <mxGeometry x="295" y="950" width="85" height="10" as="geometry" />
        </mxCell>
      </root>
    </mxGraphModel>
  </diagram>
</mxfile>
